<?xml version="1.0" encoding="UTF-8" standalone="no"?>
<svg
   xmlns:dc="http://purl.org/dc/elements/1.1/"
   xmlns:cc="http://creativecommons.org/ns#"
   xmlns:rdf="http://www.w3.org/1999/02/22-rdf-syntax-ns#"
   xmlns:svg="http://www.w3.org/2000/svg"
   xmlns="http://www.w3.org/2000/svg"
   xmlns:sodipodi="http://sodipodi.sourceforge.net/DTD/sodipodi-0.dtd"
   xmlns:inkscape="http://www.inkscape.org/namespaces/inkscape"
   sodipodi:docname="raphi.svg"
   xml:space="preserve"
   height="300"
   width="500"
   inkscape:version="1.0 (6e3e5246a0, 2020-05-07)"
   version="1.1"
   id="svg3004"><metadata
     id="metadata3010"><rdf:RDF><cc:Work
         rdf:about=""><dc:format>image/svg+xml</dc:format><dc:type
           rdf:resource="http://purl.org/dc/dcmitype/StillImage" /><dc:title></dc:title></cc:Work></rdf:RDF></metadata><defs
     id="defs3008"><clipPath
       id="clipPath3018"
       clipPathUnits="userSpaceOnUse"><path
         inkscape:connector-curvature="0"
         id="path3020"
         d="m 0,841.89 1190.55,0 L 1190.55,0 0,0 0,841.89 z" /></clipPath></defs><sodipodi:namedview
     inkscape:guide-bbox="true"
     showguides="true"
     inkscape:document-rotation="0"
     inkscape:current-layer="g3012"
     inkscape:window-maximized="0"
     inkscape:window-y="55"
     inkscape:window-x="697"
     inkscape:cy="158.97526"
     inkscape:cx="238.60411"
     inkscape:zoom="2.257777"
     showgrid="false"
     id="namedview3006"
     inkscape:window-height="960"
     inkscape:window-width="1144"
     inkscape:pageshadow="2"
     inkscape:pageopacity="0"
     guidetolerance="10"
     gridtolerance="10"
     objecttolerance="10"
     borderopacity="1"
     bordercolor="#666666"
     pagecolor="#ffffff" /><g
     transform="matrix(1.25,0,0,-1.25,0,299.99995)"
     inkscape:label="radare primeros bocetos"
     inkscape:groupmode="layer"
     id="g3012"><path
       sodipodi:nodetypes="cccccccsccsssscccccc"
       d="M 194.271,167.44375 V 72.192752 h 11.881 v -5.379 h -82.928 v 5.379 h 15.912 v 51.546998 c 0,9.188 0.673,17.258 -2.463,25.998 -0.673,2.241 -7.394,15.015 -10.758,9.413 0.898,-3.363 1.346,-7.172 1.346,-10.536 0,-15.013 -10.311,-24.65 -25.102,-24.65 -15.464,0 -26.221,10.757 -26.221,26.221 0,16.136 14.12,24.875 28.911,24.875 15.909,0 28.683,-8.514 36.085,-22.186 h 0.444 v 22.637 c 21.513,-0.673 41.67036,-2.89632 63.19036,-2.89632 l 1.58364,-5.17168 z"
       style="fill:#000000;fill-opacity:1;fill-rule:nonzero;stroke:none"
       id="path3492-8"
       inkscape:connector-curvature="0" /><g
       style="font-size:186.466px;line-height:1.25;font-family:sans-serif;letter-spacing:0px;word-spacing:0px;white-space:pre;inline-size:314.946;stroke-width:4.66165"
       id="text89"
       transform="matrix(1.8750292,0,0,-1.992076,46.626774,99.483844)"
       aria-label="ᵩ"><path
         sodipodi:nodetypes="cccsccscsccsccccsc"
         id="path133"
         style="font-style:normal;font-variant:normal;font-weight:normal;font-stretch:normal;font-family:'URW Palladio L';-inkscape-font-specification:'URW Palladio L';stroke-width:4.66165"
         d="M 113.7202,38.04189 H 85.169208 V 16.463548 C 77.420227,16.079481 65.017667,13.605673 64.8642,-8.1555954 64.695185,-32.121594 80.797445,-40.521891 88.844829,-35.103231 l -2.401752,2.291718 C 76.248075,-37.490679 72.69693,-22.642426 72.37504,-15.372853 71.378396,7.135396 73.475479,13.596492 85.169208,13.581076 v -24.15874 c 0,-7.64802 0.84978,-13.475083 2.54934,-17.481188 2.913535,-6.616144 11.340862,-9.984915 20.142152,-10.106312 17.02353,1.360206 25.7609,11.309508 25.29989,28.4461685 C 132.54917,13.008881 119.90647,15.958038 113.7202,16.463548 Z m 0,-24.460814 c 22.97682,-0.697114 20.08324,-42.354379 5.42239,-40.967432 -4.88851,2.30036 -5.42239,6.547728 -5.42239,16.808692 z" /></g><g
       style="font-size:248.703px;line-height:1.25;font-family:sans-serif;letter-spacing:0px;word-spacing:0px;stroke-width:6.21758"
       id="text93"
       transform="matrix(0.73244469,0,0,-0.73244469,1.4246811,44.904679)"
       aria-label="("><path
         sodipodi:nodetypes="ccccsscc"
         id="path971"
         style="font-style:normal;font-variant:normal;font-weight:normal;font-stretch:normal;font-family:'URW Bookman L';-inkscape-font-specification:'URW Bookman L';stroke-width:5.47615"
         d="m 122.3518,-193.7971 c -55.684558,5.03574 -54.719852,58.28394 -54.81594,95.065935 1.167002,52.689834 4.120438,86.730183 54.81594,95.0659261 V -11.988984 C 91.783771,-22.795772 88.345222,-37.398309 88.345222,-93.693111 v -10.076119 c 0,-56.2948 -0.737314,-68.40984 34.006578,-81.70412 z" /></g><g
       aria-label="("
       transform="matrix(-0.73244469,0,0,-0.73244469,369.87037,43.487359)"
       id="text93-8"
       style="font-size:248.703px;line-height:1.25;font-family:sans-serif;letter-spacing:0px;word-spacing:0px;stroke-width:6.21758"><path
         d="m 122.3518,-193.7971 c -55.684558,5.03574 -54.719852,58.28394 -54.81594,95.065935 1.167002,52.689834 4.120438,86.730183 54.81594,95.0659261 V -11.988984 C 91.783771,-22.795772 88.345222,-37.398309 88.345222,-93.693111 v -10.076119 c 0,-56.2948 -0.737314,-68.40984 34.006578,-81.70412 z"
         style="font-style:normal;font-variant:normal;font-weight:normal;font-stretch:normal;font-family:'URW Bookman L';-inkscape-font-specification:'URW Bookman L';stroke-width:5.47615"
         id="path971-8"
         sodipodi:nodetypes="ccccsscc" /></g></g></svg>
